<svg width="16" height="16" viewBox="0 0 16 16" fill="none" xmlns="http://www.w3.org/2000/svg">
<g clip-path="url(#clip0)">
<rect width="16" height="16" fill="white"/>
<rect x="1" y="1" width="14" height="14" fill="#444444"/>
<path d="M3.816 8.05C3.816 6.078 4.16167 4.55933 4.853 3.494C5.55567 2.42867 6.63233 1.896 8.083 1.896C8.87633 1.896 9.545 2.04333 10.089 2.338C10.6443 2.63267 11.092 3.052 11.432 3.596C11.772 4.12867 12.0157 4.77467 12.163 5.534C12.3103 6.282 12.384 7.12067 12.384 8.05C12.384 10.022 12.0327 11.5407 11.33 12.606C10.6387 13.6713 9.55633 14.204 8.083 14.204C7.301 14.204 6.638 14.0567 6.094 13.762C5.55 13.4673 5.108 13.0537 4.768 12.521C4.428 11.977 4.18433 11.331 4.037 10.583C3.88967 9.82367 3.816 8.97933 3.816 8.05ZM5.312 8.05C5.312 8.70733 5.35167 9.33067 5.431 9.92C5.52167 10.5093 5.67467 11.0307 5.89 11.484C6.10533 11.926 6.38867 12.283 6.74 12.555C7.09133 12.8157 7.539 12.946 8.083 12.946C9.05767 12.946 9.766 12.5493 10.208 11.756C10.6613 10.9627 10.888 9.72733 10.888 8.05C10.888 7.404 10.8427 6.78633 10.752 6.197C10.6727 5.59633 10.5253 5.075 10.31 4.633C10.0947 4.17967 9.80567 3.82267 9.443 3.562C9.08033 3.29 8.627 3.154 8.083 3.154C7.11967 3.154 6.417 3.55633 5.975 4.361C5.533 5.15433 5.312 6.384 5.312 8.05Z" fill="#00FF00"/>
</g>
<defs>
<clipPath id="clip0">
<rect width="16" height="16" fill="white"/>
</clipPath>
</defs>
</svg>
