<svg width="190" height="34" viewBox="0 0 190 34" fill="none" xmlns="http://www.w3.org/2000/svg">
<rect width="190" height="34" fill="#E5E5E5"/>
<rect width="190" height="34" fill="white"/>
<rect x="21" y="10" width="14" height="14" fill="#444444"/>
<path d="M23.816 17.05C23.816 15.078 24.1617 13.5593 24.853 12.494C25.5557 11.4287 26.6323 10.896 28.083 10.896C28.8763 10.896 29.545 11.0433 30.089 11.338C30.6443 11.6327 31.092 12.052 31.432 12.596C31.772 13.1287 32.0157 13.7747 32.163 14.534C32.3103 15.282 32.384 16.1207 32.384 17.05C32.384 19.022 32.0327 20.5407 31.33 21.606C30.6387 22.6713 29.5563 23.204 28.083 23.204C27.301 23.204 26.638 23.0567 26.094 22.762C25.55 22.4673 25.108 22.0537 24.768 21.521C24.428 20.977 24.1843 20.331 24.037 19.583C23.8897 18.8237 23.816 17.9793 23.816 17.05ZM25.312 17.05C25.312 17.7073 25.3517 18.3307 25.431 18.92C25.5217 19.5093 25.6747 20.0307 25.89 20.484C26.1053 20.926 26.3887 21.283 26.74 21.555C27.0913 21.8157 27.539 21.946 28.083 21.946C29.0577 21.946 29.766 21.5493 30.208 20.756C30.6613 19.9627 30.888 18.7273 30.888 17.05C30.888 16.404 30.8427 15.7863 30.752 15.197C30.6727 14.5963 30.5253 14.075 30.31 13.633C30.0947 13.1797 29.8057 12.8227 29.443 12.562C29.0803 12.29 28.627 12.154 28.083 12.154C27.1197 12.154 26.417 12.5563 25.975 13.361C25.533 14.1543 25.312 15.384 25.312 17.05Z" fill="#00FF00"/>
<path d="M37.853 9.754C37.8757 9.53867 38.023 9.35733 38.295 9.21C38.5783 9.05133 38.856 8.972 39.128 8.972C39.298 8.972 39.4283 9.006 39.519 9.074C39.6097 9.142 39.6493 9.24967 39.638 9.397C39.3093 12.355 38.9693 15.313 38.618 18.271L38.108 22.708C38.0853 22.9233 37.9323 23.1103 37.649 23.269C37.3657 23.4277 37.0823 23.507 36.799 23.507C36.4137 23.507 36.238 23.3597 36.272 23.065L37.071 16.401C37.4337 13.273 37.6943 11.0573 37.853 9.754ZM41.8675 21.909C42.0829 22.079 42.3605 22.164 42.7005 22.164C43.0972 22.164 43.6015 22.0337 44.2135 21.773C44.5762 19.6763 44.8595 17.6137 45.0635 15.585H45.0295C44.4175 15.585 43.8565 15.7947 43.3465 16.214C42.8365 16.6333 42.4115 17.1547 42.0715 17.778C41.7429 18.4013 41.5162 19.019 41.3915 19.631C41.3349 19.9143 41.3065 20.192 41.3065 20.464C41.3065 21.1327 41.4935 21.6143 41.8675 21.909ZM45.4715 10.196C45.4829 9.992 45.6245 9.81633 45.8965 9.669C46.1685 9.51033 46.4462 9.431 46.7295 9.431C47.0809 9.431 47.2509 9.56133 47.2395 9.822C47.0469 13.562 46.6389 17.421 46.0155 21.399C46.1969 21.4897 46.2875 21.6087 46.2875 21.756C46.2875 21.926 46.1515 22.0903 45.8795 22.249L45.7775 22.878C45.7322 23.0933 45.5679 23.2803 45.2845 23.439C45.0125 23.5863 44.7405 23.66 44.4685 23.66C44.2985 23.66 44.1625 23.626 44.0605 23.558C43.9585 23.4787 43.9245 23.3653 43.9585 23.218C43.9585 23.1613 43.9642 23.1217 43.9755 23.099C43.2502 23.3257 42.6495 23.439 42.1735 23.439C41.6522 23.439 41.1819 23.3257 40.7625 23.099C40.3432 22.8837 40.0372 22.572 39.8445 22.164C39.6519 21.756 39.5555 21.297 39.5555 20.787C39.5555 20.6057 39.5782 20.3563 39.6235 20.039C39.7822 19.121 40.1222 18.237 40.6435 17.387C41.1649 16.537 41.8222 15.84 42.6155 15.296C43.4089 14.752 44.2645 14.463 45.1825 14.429C45.3185 12.8763 45.4149 11.4653 45.4715 10.196Z" fill="black"/>
<rect x="61" y="10" width="14" height="14" fill="#444444"/>
<path d="M66.332 15.554L65.414 13.837H65.346L65.516 15.554V23H64.19V11.1H65.108L69.902 18.512L70.786 20.144H70.871L70.684 18.512V11.1H72.01V23H71.092L66.332 15.554Z" fill="#00FF00"/>
<path d="M80.046 14.95C79.57 15.314 79.1827 15.902 78.884 16.714C79.7987 16.3687 80.6247 16.0793 81.362 15.846C81.054 15.4167 80.7413 15.1273 80.424 14.978C80.3587 14.95 80.2933 14.9313 80.228 14.922C80.172 14.9127 80.1393 14.908 80.13 14.908C80.1393 14.9173 80.13 14.9267 80.102 14.936C80.0833 14.9453 80.0647 14.95 80.046 14.95ZM80.102 13.956C80.2513 13.9187 80.41 13.9 80.578 13.9C81.474 13.9 82.286 14.502 83.014 15.706C83.042 15.7433 83.056 15.79 83.056 15.846C83.056 15.9487 82.9907 16.056 82.86 16.168C82.7573 16.28 82.6267 16.3687 82.468 16.434C81.5347 16.8447 80.2373 17.3347 78.576 17.904C78.4827 18.38 78.436 18.87 78.436 19.374C78.436 19.6073 78.4407 19.7753 78.45 19.878C78.4687 20.298 78.5527 20.662 78.702 20.97C78.7487 21.0727 78.814 21.1707 78.898 21.264C78.9913 21.3573 79.0613 21.418 79.108 21.446C79.136 21.4647 79.1827 21.474 79.248 21.474C79.3133 21.474 79.388 21.4553 79.472 21.418C79.5653 21.3807 79.668 21.3293 79.78 21.264C80.0507 21.1053 80.3027 20.9233 80.536 20.718C80.7693 20.5127 81.0493 20.2467 81.376 19.92C81.5067 19.7893 81.726 19.724 82.034 19.724C82.202 19.724 82.342 19.752 82.454 19.808C82.5753 19.8547 82.636 19.9247 82.636 20.018C82.636 20.102 82.5893 20.1953 82.496 20.298C81.9173 20.9233 81.3247 21.4553 80.718 21.894C80.1113 22.3327 79.5047 22.552 78.898 22.552C78.6087 22.552 78.338 22.4913 78.086 22.37C77.666 22.174 77.3627 21.8613 77.176 21.432C76.9893 21.0027 76.896 20.4987 76.896 19.92C76.896 19.4907 76.952 18.9867 77.064 18.408L76.952 18.436L76.84 18.478C76.7 18.5247 76.588 18.548 76.504 18.548C76.3733 18.548 76.2707 18.5153 76.196 18.45C76.1213 18.3847 76.084 18.3007 76.084 18.198C76.084 18.0767 76.1307 17.96 76.224 17.848C76.3267 17.7267 76.476 17.6287 76.672 17.554L77.358 17.288C77.442 17.0267 77.568 16.686 77.736 16.266C77.9973 15.6873 78.324 15.188 78.716 14.768C79.108 14.348 79.57 14.0773 80.102 13.956ZM91.2073 13.956C91.2913 13.8533 91.4126 13.774 91.5713 13.718C91.7299 13.662 91.8886 13.634 92.0473 13.634C92.1966 13.634 92.3179 13.662 92.4113 13.718C92.5139 13.7647 92.5653 13.8347 92.5653 13.928C92.5653 14.012 92.5233 14.11 92.4393 14.222C91.6646 15.2487 91.0159 16.3593 90.4933 17.554C89.9799 18.7393 89.5319 20.0553 89.1493 21.502C89.1119 21.6513 88.9953 21.782 88.7993 21.894C88.6033 21.9967 88.4026 22.048 88.1973 22.048C88.0479 22.048 87.9219 22.0153 87.8193 21.95C87.7259 21.8847 87.6746 21.782 87.6653 21.642C87.5813 20.774 87.4739 19.5093 87.3433 17.848C86.5313 19.4533 85.9059 20.7647 85.4673 21.782C85.4299 21.9313 85.3133 22.062 85.1173 22.174C84.9306 22.2767 84.7393 22.328 84.5433 22.328C84.4219 22.328 84.3099 22.3 84.2073 22.244C84.0673 22.1973 83.9973 22.118 83.9973 22.006C83.9973 21.978 84.0066 21.936 84.0253 21.88C83.9226 20.732 83.7966 19.0007 83.6473 16.686L83.5073 14.628C83.4979 14.4507 83.6006 14.2967 83.8153 14.166C84.0299 14.0353 84.2586 13.97 84.5013 13.97C84.6413 13.97 84.7579 14.0027 84.8513 14.068C84.9446 14.124 84.9959 14.2127 85.0053 14.334L85.3133 18.996C85.8639 17.8573 86.4753 16.6953 87.1473 15.51C87.1566 15.3513 87.2686 15.2113 87.4833 15.09C87.6979 14.9687 87.9173 14.908 88.1413 14.908C88.3186 14.908 88.4493 14.95 88.5333 15.034C88.6079 15.0993 88.6406 15.1693 88.6313 15.244L88.6453 15.272C88.6919 15.8227 88.7713 16.728 88.8833 17.988C89.5459 16.392 90.3206 15.048 91.2073 13.956ZM103.16 17.694C103.748 18.2073 104.042 18.7347 104.042 19.276C104.042 19.6307 103.921 19.9853 103.678 20.34C102.819 21.572 101.811 22.3327 100.654 22.622C100.355 22.6967 100.019 22.734 99.6459 22.734C98.7686 22.734 97.9286 22.5147 97.1259 22.076C96.7432 21.8707 96.4772 21.6047 96.3279 21.278C96.1786 20.9513 96.1039 20.564 96.1039 20.116C96.1039 19.7987 96.1412 19.3413 96.2159 18.744C96.2439 18.5853 96.3746 18.506 96.6079 18.506C96.8692 18.506 97.1352 18.59 97.4059 18.758C97.6766 18.926 97.7979 19.1127 97.7699 19.318C97.7606 19.3927 97.7372 19.5607 97.6999 19.822C97.6626 20.074 97.6439 20.3073 97.6439 20.522C97.6439 21.0073 97.7606 21.334 97.9939 21.502C98.2272 21.67 98.5306 21.754 98.9039 21.754C99.2772 21.754 99.6646 21.6747 100.066 21.516C100.374 21.3947 100.715 21.194 101.088 20.914C101.471 20.634 101.793 20.3167 102.054 19.962C102.325 19.6073 102.46 19.262 102.46 18.926C102.46 18.6553 102.367 18.408 102.18 18.184C101.993 17.9693 101.727 17.764 101.382 17.568C101.046 17.372 100.598 17.1433 100.038 16.882C99.3472 16.5553 98.7919 16.2707 98.3719 16.028C97.9612 15.776 97.6066 15.482 97.3079 15.146C97.0092 14.8007 96.8599 14.4133 96.8599 13.984C96.8599 13.788 96.8832 13.6153 96.9299 13.466C97.1539 12.626 97.7046 12.024 98.5819 11.66C99.4686 11.2867 100.425 11.1 101.452 11.1C101.9 11.1 102.292 11.128 102.628 11.184C102.964 11.24 103.244 11.3613 103.468 11.548C103.72 11.7533 103.846 12.0427 103.846 12.416C103.846 12.64 103.809 12.864 103.734 13.088C103.669 13.3027 103.566 13.5967 103.426 13.97C103.323 14.222 103.263 14.376 103.244 14.432C103.188 14.5907 103.034 14.67 102.782 14.67C102.53 14.67 102.283 14.6 102.04 14.46C101.797 14.32 101.676 14.1613 101.676 13.984C101.676 13.9373 101.681 13.9 101.69 13.872L101.9 13.27C101.993 13.0087 102.059 12.8127 102.096 12.682L102.194 12.094C101.018 12.0753 100.08 12.3133 99.3799 12.808C99.0999 12.9947 98.8806 13.214 98.7219 13.466C98.5726 13.7087 98.4979 13.956 98.4979 14.208C98.4979 14.6467 98.7172 15.0247 99.1559 15.342C99.4732 15.566 99.8232 15.776 100.206 15.972C100.598 16.168 100.836 16.2893 100.92 16.336C101.461 16.6067 101.895 16.8353 102.222 17.022C102.558 17.2087 102.871 17.4327 103.16 17.694ZM112.437 16.798C112.437 16.3593 112.278 15.958 111.961 15.594C111.643 15.23 111.242 14.8707 110.757 14.516C109.861 13.8813 108.839 13.312 107.691 12.808C107.56 13.6013 107.373 14.7913 107.131 16.378C107.065 16.798 106.953 17.498 106.795 18.478C106.645 19.458 106.501 20.3307 106.361 21.096C107.201 20.76 107.929 20.452 108.545 20.172C109.161 19.8827 109.749 19.57 110.309 19.234C110.925 18.8793 111.433 18.5107 111.835 18.128C112.236 17.7453 112.437 17.302 112.437 16.798ZM112.437 14.096C113.407 14.8613 113.893 15.6593 113.893 16.49C113.893 16.6113 113.879 16.742 113.851 16.882C113.739 17.4513 113.454 17.96 112.997 18.408C112.539 18.856 111.965 19.2993 111.275 19.738C109.455 20.886 107.219 21.88 104.569 22.72C104.447 22.7573 104.326 22.776 104.205 22.776C104.065 22.776 103.957 22.748 103.883 22.692C103.799 22.6267 103.757 22.5473 103.757 22.454C103.757 22.3607 103.803 22.2673 103.897 22.174C103.981 22.0713 104.107 21.9873 104.275 21.922L104.877 21.684C104.811 21.6187 104.793 21.544 104.821 21.46L105.493 17.386C105.754 15.6873 106.034 13.9933 106.333 12.304L106.347 12.234C106.141 12.1407 105.824 12.01 105.395 11.842C105.264 11.786 105.199 11.7113 105.199 11.618C105.199 11.478 105.325 11.3333 105.577 11.184C105.838 11.0253 106.081 10.946 106.305 10.946C106.398 10.946 106.463 10.9553 106.501 10.974C107.873 11.534 109.011 12.038 109.917 12.486C110.831 12.934 111.671 13.4707 112.437 14.096ZM116.889 17.344C117.542 17.2507 118.144 17.204 118.695 17.204L118.555 13.942C118.331 14.3433 118.013 14.9873 117.603 15.874C117.248 16.63 117.01 17.12 116.889 17.344ZM121.075 22.356C121.112 22.496 121.075 22.6313 120.963 22.762C120.851 22.8833 120.697 22.9813 120.501 23.056C120.314 23.14 120.137 23.182 119.969 23.182C119.698 23.182 119.544 23.098 119.507 22.93C119.171 21.5953 118.923 20.0087 118.765 18.17C117.925 18.1607 117.089 18.24 116.259 18.408C115.381 19.8733 114.565 21.222 113.809 22.454C113.734 22.5847 113.58 22.6967 113.347 22.79C113.104 22.874 112.88 22.916 112.675 22.916C112.413 22.916 112.283 22.846 112.283 22.706C112.283 22.65 112.301 22.5893 112.339 22.524C113.085 21.2173 113.776 20.0227 114.411 18.94L114.173 19.024C114.023 19.08 113.888 19.108 113.767 19.108C113.645 19.108 113.552 19.08 113.487 19.024C113.412 18.968 113.375 18.898 113.375 18.814C113.375 18.7207 113.421 18.6273 113.515 18.534C113.599 18.4313 113.725 18.3427 113.893 18.268C114.331 18.072 114.723 17.918 115.069 17.806C115.573 16.938 116.109 15.9533 116.679 14.852C117.332 13.592 117.883 12.6073 118.331 11.898C118.359 11.8607 118.396 11.8233 118.443 11.786L118.429 11.716C118.429 11.548 118.545 11.3987 118.779 11.268C119.021 11.128 119.264 11.058 119.507 11.058C119.805 11.058 119.959 11.17 119.969 11.394L120.011 12.332C120.095 14.5813 120.202 16.476 120.333 18.016C120.473 19.5467 120.72 20.9933 121.075 22.356ZM133.635 11.478C133.691 11.3473 133.831 11.2353 134.055 11.142C134.279 11.0393 134.489 10.988 134.685 10.988C134.946 10.988 135.077 11.072 135.077 11.24C135.077 11.3053 135.068 11.3567 135.049 11.394C134.433 12.934 133.896 14.5207 133.439 16.154L133.817 16.14C134.125 16.1307 134.279 16.196 134.279 16.336C134.279 16.4667 134.167 16.616 133.943 16.784C133.728 16.952 133.528 17.0453 133.341 17.064L133.187 17.092C132.786 18.6413 132.454 20.298 132.193 22.062C132.165 22.2393 132.025 22.3933 131.773 22.524C131.521 22.6547 131.274 22.72 131.031 22.72C130.9 22.72 130.798 22.692 130.723 22.636C130.648 22.58 130.616 22.5007 130.625 22.398C130.868 20.662 131.204 18.968 131.633 17.316C130.728 17.484 129.822 17.708 128.917 17.988C128.702 18.996 128.478 20.256 128.245 21.768C128.217 21.9453 128.077 22.0993 127.825 22.23C127.573 22.3607 127.326 22.426 127.083 22.426C126.943 22.426 126.836 22.398 126.761 22.342C126.686 22.286 126.658 22.202 126.677 22.09C126.873 20.774 127.088 19.5467 127.321 18.408C127.134 18.3613 127.041 18.2587 127.041 18.1C127.041 18.0067 127.078 17.9133 127.153 17.82C127.237 17.7267 127.354 17.6427 127.503 17.568C128.007 15.4027 128.628 13.4473 129.365 11.702C129.421 11.5713 129.561 11.4593 129.785 11.366C130.009 11.2633 130.224 11.212 130.429 11.212C130.69 11.212 130.821 11.296 130.821 11.464C130.821 11.5293 130.812 11.5807 130.793 11.618C130.168 13.214 129.617 14.992 129.141 16.952C130.028 16.6627 130.952 16.448 131.913 16.308C132.417 14.5627 132.991 12.9527 133.635 11.478ZM137.105 28.096C137.068 28.1147 137.054 28.138 137.063 28.166C137.063 28.1473 137.077 28.124 137.105 28.096ZM140.563 14.222C140.563 14.0447 140.67 13.8907 140.885 13.76C141.1 13.6293 141.324 13.564 141.557 13.564C141.697 13.564 141.809 13.5967 141.893 13.662C141.986 13.718 142.033 13.8113 142.033 13.942C142.042 14.418 142.01 14.8847 141.935 15.342C141.87 15.79 141.758 16.4153 141.599 17.218C141.524 17.554 141.473 17.8013 141.445 17.96C141.118 19.7147 140.717 21.516 140.241 23.364C139.989 24.3627 139.76 25.1793 139.555 25.814C139.359 26.458 139.112 27.074 138.813 27.662C138.626 28.026 138.384 28.348 138.085 28.628C137.786 28.9173 137.474 29.062 137.147 29.062C136.923 29.062 136.704 28.9827 136.489 28.824C135.957 28.4133 135.691 27.522 135.691 26.15C135.691 25.7767 135.714 25.24 135.761 24.54C135.77 24.3627 135.887 24.2087 136.111 24.078C136.335 23.9473 136.564 23.882 136.797 23.882C137.114 23.882 137.268 24.0033 137.259 24.246C137.24 24.6753 137.231 25.002 137.231 25.226C137.231 25.7393 137.259 26.2387 137.315 26.724C137.324 26.78 137.338 26.8733 137.357 27.004C137.385 27.1347 137.418 27.2513 137.455 27.354C137.492 27.2513 137.544 27.144 137.609 27.032C137.805 26.6027 137.931 26.2993 137.987 26.122C138.183 25.5527 138.426 24.7267 138.715 23.644C138.976 22.6453 139.196 21.7493 139.373 20.956C138.86 21.5813 138.304 21.9687 137.707 22.118C137.418 22.1833 137.194 22.216 137.035 22.216C135.99 22.216 135.467 21.4273 135.467 19.85C135.467 18.6553 135.775 17.0313 136.391 14.978C136.438 14.81 136.568 14.6607 136.783 14.53C136.998 14.39 137.203 14.32 137.399 14.32C137.66 14.32 137.814 14.4413 137.861 14.684C137.88 14.7867 137.847 14.9453 137.763 15.16C137.679 15.3747 137.628 15.5147 137.609 15.58C137.46 16.14 137.357 16.56 137.301 16.84L137.231 17.134C137.119 17.61 137.026 18.044 136.951 18.436C136.876 18.828 136.839 19.206 136.839 19.57C136.839 20.2327 136.984 20.6947 137.273 20.956C137.348 21.0307 137.436 21.068 137.539 21.068C137.838 21.068 138.141 20.802 138.449 20.27C138.757 19.7287 139.07 19.1033 139.387 18.394C139.704 17.666 139.952 17.05 140.129 16.546C140.316 16.0327 140.442 15.5193 140.507 15.006C140.526 14.8193 140.544 14.558 140.563 14.222ZM151.223 13.872C151.176 14.852 151.153 15.7293 151.153 16.504C151.153 18.4267 151.283 20.1393 151.545 21.642C151.582 21.8567 151.498 22.0433 151.293 22.202C151.087 22.3513 150.863 22.426 150.621 22.426C150.481 22.426 150.364 22.3933 150.271 22.328C150.177 22.2627 150.121 22.1647 150.103 22.034C149.86 20.2233 149.72 18.534 149.683 16.966C149.235 18.03 148.698 19.5233 148.073 21.446C148.063 21.4833 148.035 21.5347 147.989 21.6C147.905 21.712 147.779 21.8007 147.611 21.866C147.443 21.9313 147.275 21.964 147.107 21.964C146.976 21.964 146.873 21.9453 146.799 21.908C146.677 21.8427 146.617 21.754 146.617 21.642C146.617 21.614 146.626 21.5627 146.645 21.488C146.654 21.3853 146.659 21.236 146.659 21.04C146.659 20.7133 146.631 20.242 146.575 19.626L146.519 18.87C146.481 17.9553 146.449 17.2693 146.421 16.812C145.973 17.6333 145.618 18.24 145.357 18.632C145.133 19.8173 144.759 20.9653 144.237 22.076C144.171 22.2067 144.031 22.3187 143.817 22.412C143.602 22.5053 143.392 22.552 143.187 22.552C143.056 22.552 142.949 22.5287 142.865 22.482C142.79 22.4353 142.753 22.37 142.753 22.286C142.753 22.23 142.767 22.1693 142.795 22.104C143.224 21.1707 143.551 20.214 143.775 19.234C143.737 19.1967 143.719 19.1453 143.719 19.08C143.719 18.9867 143.756 18.8887 143.831 18.786L143.887 18.688C144.036 17.9413 144.111 17.148 144.111 16.308C144.111 15.9533 144.097 15.6033 144.069 15.258C144.059 15.0993 144.167 14.9547 144.391 14.824C144.615 14.6933 144.843 14.628 145.077 14.628C145.207 14.628 145.315 14.656 145.399 14.712C145.483 14.768 145.529 14.8473 145.539 14.95C145.557 15.118 145.576 15.3887 145.595 15.762C145.809 15.37 146.038 15.0013 146.281 14.656C146.299 14.4973 146.411 14.362 146.617 14.25C146.822 14.1287 147.037 14.068 147.261 14.068C147.401 14.068 147.517 14.1007 147.611 14.166C147.713 14.222 147.769 14.3153 147.779 14.446C147.872 15.65 147.937 16.7233 147.975 17.666C148.6 16.1353 149.221 14.8707 149.837 13.872C149.902 13.7693 150.028 13.676 150.215 13.592C150.401 13.508 150.583 13.466 150.761 13.466C150.901 13.466 151.013 13.4987 151.097 13.564C151.19 13.6293 151.232 13.732 151.223 13.872ZM157.68 13.942C158.053 14.1473 158.24 14.5813 158.24 15.244C158.24 15.4867 158.216 15.7573 158.17 16.056C158.123 16.3453 158.072 16.6207 158.016 16.882L157.918 17.442L157.33 21.796C157.516 21.8427 157.596 21.9593 157.568 22.146C157.465 22.6593 157.101 22.986 156.476 23.126L156.336 23.14C156.177 23.14 156.037 23.1073 155.916 23.042C155.794 22.9767 155.743 22.874 155.762 22.734C156.154 19.8967 156.443 17.7687 156.63 16.35C156.639 16.3127 156.658 16.2053 156.686 16.028C156.723 15.8507 156.742 15.6827 156.742 15.524C156.742 15.2253 156.662 15.0713 156.504 15.062C156.382 15.0433 156.182 15.2113 155.902 15.566C155.631 15.9113 155.482 16.1027 155.454 16.14C154.894 16.7747 154.371 17.484 153.886 18.268C153.662 19.6307 153.484 20.732 153.354 21.572L153.284 22.02C153.256 22.1973 153.125 22.3513 152.892 22.482C152.658 22.6127 152.43 22.678 152.206 22.678C152.066 22.678 151.954 22.65 151.87 22.594C151.795 22.5287 151.767 22.4353 151.786 22.314C152.028 20.886 152.22 19.7193 152.36 18.814C152.304 18.758 152.276 18.6927 152.276 18.618C152.276 18.5713 152.29 18.52 152.318 18.464C152.346 18.4173 152.369 18.3753 152.388 18.338C152.416 18.3007 152.439 18.268 152.458 18.24L153.018 14.852C153.046 14.684 153.172 14.5393 153.396 14.418C153.62 14.2967 153.844 14.236 154.068 14.236C154.208 14.236 154.315 14.264 154.39 14.32C154.464 14.376 154.492 14.46 154.474 14.572C154.427 14.88 154.362 15.2767 154.278 15.762L154.866 15.132C155.258 14.74 155.631 14.418 155.986 14.166C156.34 13.914 156.7 13.788 157.064 13.788C157.297 13.788 157.502 13.8393 157.68 13.942ZM159.873 20.396C159.854 20.508 159.845 20.5873 159.845 20.634C159.845 21.0073 160.027 21.194 160.391 21.194C160.606 21.194 160.867 21.1333 161.175 21.012C161.455 20.9 161.973 20.662 162.729 20.298C162.748 20.0647 162.766 19.8407 162.785 19.626C162.813 19.402 162.836 19.2013 162.855 19.024L162.953 18.058C162.309 18.366 161.828 18.6087 161.511 18.786C161.044 19.0567 160.671 19.3133 160.391 19.556C160.111 19.7893 159.938 20.0693 159.873 20.396ZM163.513 13.802C163.933 13.802 164.213 13.9093 164.353 14.124C164.502 14.3293 164.577 14.6327 164.577 15.034L164.563 15.426C164.526 16.1073 164.442 17.106 164.311 18.422C164.283 18.6087 164.25 18.9213 164.213 19.36C164.176 19.6307 164.143 19.85 164.115 20.018C164.218 20.074 164.269 20.1487 164.269 20.242C164.269 20.3073 164.236 20.4053 164.171 20.536L164.115 20.606L164.031 20.69C163.966 21.166 163.933 21.572 163.933 21.908C164.064 21.9827 164.129 22.0713 164.129 22.174C164.129 22.3327 164.012 22.5007 163.779 22.678C163.714 22.7247 163.639 22.7713 163.555 22.818C163.49 22.8553 163.396 22.888 163.275 22.916C163.163 22.944 163.051 22.958 162.939 22.958C162.594 22.958 162.435 22.832 162.463 22.58L162.575 21.404C161.324 22.0013 160.363 22.3 159.691 22.3C158.842 22.3 158.417 21.8427 158.417 20.928C158.417 20.0507 158.87 19.304 159.775 18.688C160.69 18.072 161.782 17.5167 163.051 17.022C163.088 16.658 163.116 16.2893 163.135 15.916C163.135 15.8413 163.14 15.748 163.149 15.636C163.158 15.524 163.163 15.398 163.163 15.258C163.163 15.0807 163.149 14.964 163.121 14.908L163.079 14.852H163.065C162.925 14.852 162.664 15.0433 162.281 15.426C161.936 15.762 161.506 16.266 160.993 16.938C160.918 17.0407 160.792 17.1247 160.615 17.19C160.447 17.2553 160.274 17.288 160.097 17.288C159.966 17.288 159.854 17.2647 159.761 17.218C159.677 17.1713 159.635 17.1013 159.635 17.008C159.635 16.9333 159.672 16.8353 159.747 16.714C161.035 14.7727 162.29 13.802 163.513 13.802ZM166.407 11.268C166.426 11.0907 166.547 10.9413 166.771 10.82C167.004 10.6893 167.233 10.624 167.457 10.624C167.597 10.624 167.704 10.652 167.779 10.708C167.854 10.764 167.886 10.8527 167.877 10.974C167.606 13.41 167.326 15.846 167.037 18.282L166.617 21.936C166.598 22.1133 166.472 22.2673 166.239 22.398C166.006 22.5287 165.772 22.594 165.539 22.594C165.222 22.594 165.077 22.4727 165.105 22.23L165.763 16.742C166.062 14.166 166.276 12.3413 166.407 11.268Z" fill="black"/>
<path fill-rule="evenodd" clip-rule="evenodd" d="M53.8822 18.1363C54.2648 18.2282 54.6098 18.4338 54.9296 18.7477C55.2495 19.0669 55.4063 19.4186 55.4063 19.7973C55.4063 20.0354 55.3122 20.306 55.1303 20.5927C54.9484 20.8849 54.6725 21.0959 54.315 21.2312C54.1958 21.2528 54.1394 21.3069 54.1394 21.3827C54.1394 21.4097 54.1833 21.4368 54.2899 21.4584C54.8606 21.334 55.331 21.0689 55.6948 20.6739C56.0585 20.2735 56.2467 19.819 56.2592 19.2996C56.2404 18.7423 56.046 18.2228 55.676 17.7467C55.2997 17.2651 54.8167 16.9242 54.2272 16.7241L54.6599 14.8032C55.6258 15.4958 56.4098 16.2154 57.0181 16.9729C57.6265 17.725 57.9401 18.5421 57.9652 19.424C57.9526 19.819 57.8585 20.2031 57.6829 20.5711C57.5073 20.9444 57.2439 21.2799 56.8927 21.5883C56.184 22.1997 55.262 22.5189 54.1394 22.5514C53.7568 22.5298 53.3491 22.4702 52.9101 22.3728L53.8822 18.1363ZM53.4307 18.0821L52.4523 22.243C51.4864 21.9075 51.0035 21.1771 51.0035 20.0625C51.0599 19.6891 51.1854 19.3537 51.3986 19.0561C51.6056 18.7531 51.8815 18.515 52.2328 18.3419C52.584 18.1687 52.9791 18.0821 53.4307 18.0821ZM54.7164 12.455C54.5094 12.3468 54.2711 12.1574 54.0139 11.8923C53.7568 11.6326 53.5059 11.3242 53.2676 10.9779C53.023 10.6262 52.8286 10.2691 52.6843 9.90654C52.5401 9.54943 52.4711 9.20856 52.4711 8.89474C52.4711 8.75947 52.4836 8.6242 52.515 8.50516C52.5401 8.31038 52.6091 8.15888 52.7282 8.05607C52.8474 7.95868 52.9979 7.90457 53.1861 7.90457C53.5624 7.90457 53.901 8.10477 54.2021 8.50516C54.4341 8.85145 54.6286 9.26267 54.7666 9.72799C54.9108 10.1987 54.9923 10.664 55.0049 11.1348C54.9735 11.6704 54.8732 12.1087 54.7164 12.455ZM55.1115 12.7688C55.3937 11.8923 55.5505 10.9995 55.5819 10.0905C55.5756 9.50615 55.5066 8.95967 55.3749 8.45106C55.2495 7.94245 55.0676 7.50418 54.8293 7.12543C54.5972 6.74668 54.3275 6.45991 54.0265 6.26513C53.7568 6.09198 53.5624 6 53.4557 6C53.3742 6 53.3052 6.02705 53.2425 6.07575C53.1798 6.12445 53.0983 6.20561 52.9979 6.31382C52.2516 7.22823 51.8753 8.33202 51.8753 9.61977C51.8753 10.2312 51.9693 10.8264 52.1575 11.4215C52.3394 12.0113 52.6091 12.574 52.9666 13.0989C53.3303 13.6291 53.7568 14.089 54.2523 14.484L53.7443 16.6158C53.4683 16.5888 53.2801 16.5671 53.1735 16.5671C52.6969 16.5671 52.2704 16.6537 51.8753 16.8269C51.4801 17 51.1415 17.2327 50.8655 17.5303C50.5895 17.8224 50.3763 18.1579 50.2258 18.5366C50.0815 18.9154 50 19.3104 50 19.7216C50 20.3601 50.1944 20.9444 50.5833 21.4693C50.9721 21.9941 51.5554 22.3783 52.3394 22.6272C52.2892 22.8923 52.2014 23.2764 52.0697 23.7688C51.9443 24.2666 51.8502 24.6616 51.7875 24.9538C51.7247 25.2459 51.6997 25.5273 51.6997 25.8032C51.6997 26.2307 51.8188 26.6094 52.0571 26.9449C52.3017 27.2804 52.6279 27.5401 53.0418 27.7241C53.4495 27.908 53.901 28 54.3902 28C55.0801 28 55.6822 27.8323 56.1965 27.5022C56.7108 27.1667 56.9868 26.7177 57.0118 26.1441C56.993 25.8898 56.924 25.6517 56.7986 25.4245C56.6732 25.1972 56.5038 25.0133 56.2843 24.8726C56.0711 24.7265 55.8139 24.6508 55.5192 24.6345C55.2746 24.6345 55.0425 24.694 54.823 24.8077C54.6098 24.9267 54.4341 25.0836 54.3024 25.2838C54.177 25.484 54.108 25.7059 54.108 25.9439C54.108 26.2632 54.2334 26.5337 54.4843 26.7555C54.7352 26.9774 55.0551 27.091 55.4376 27.091H55.5819C55.3373 27.4156 54.9359 27.5834 54.3777 27.5834C54.0955 27.5834 53.807 27.5293 53.5185 27.4319C53.2237 27.3291 52.9791 27.1938 52.7721 27.0207C52.5652 26.8475 52.4272 26.6636 52.3707 26.4688C52.2641 26.2469 52.2139 25.9385 52.2139 25.5544C52.2139 25.2946 52.2453 25.0349 52.3017 24.7752C52.3582 24.5209 52.446 24.18 52.5652 23.758C52.6843 23.3414 52.7721 23.0167 52.8223 22.7949C53.1986 22.876 53.5875 22.9193 53.9951 22.9193C54.6787 22.9193 55.3247 22.8003 55.9331 22.5568C56.5415 22.3133 57.0746 21.9779 57.5387 21.545C57.9965 21.1121 58.354 20.6252 58.6111 20.0733C58.862 19.5268 58.9937 18.9533 59 18.3581C58.9749 17.8062 58.8557 17.2759 58.63 16.7782C58.4042 16.275 58.1157 15.7988 57.7582 15.3551C57.4007 14.9115 57.0307 14.5057 56.6481 14.1431C56.2592 13.786 55.7512 13.3261 55.1115 12.7688Z" fill="#00FF00"/>
</svg>
